<svg xmlns="http://www.w3.org/2000/svg" version="1.1" xmlns:xlink="http://www.w3.org/1999/xlink" xmlns:svgjs="http://svgjs.dev/svgjs" width="2000" height="737" viewBox="0 0 2000 737"><g transform="matrix(1,0,0,1,-1.2121212121213603,2.2729641894686665)"><svg viewBox="0 0 396 146" data-background-color="#ffffff" preserveAspectRatio="xMidYMid meet" height="737" width="2000" xmlns="http://www.w3.org/2000/svg" xmlns:xlink="http://www.w3.org/1999/xlink"><g id="tight-bounds" transform="matrix(1,0,0,1,0.24000000000003752,0.094832341389818)"><svg viewBox="0 0 395.5199999999999 145.7247133299571" height="145.7247133299571" width="395.5199999999999"><g><svg viewBox="0 0 671.3202871701448 247.34010012250664" height="145.7247133299571" width="395.5199999999999"><g transform="matrix(1,0,0,1,275.80028717014477,57.231853950372056)"><svg viewBox="0 0 395.52 132.87639222176253" height="132.87639222176253" width="395.52"><g id="textblocktransform"><svg viewBox="0 0 395.52 132.87639222176253" height="132.87639222176253" width="395.52" id="textblock"><g><svg viewBox="0 0 395.52 132.87639222176253" height="132.87639222176253" width="395.52"><g transform="matrix(1,0,0,1,0,0)"><svg width="395.52" viewBox="3.03 -40.3 120.83 40.599999999999994" height="132.87639222176253" data-palette-color="#000000"><path d="M7 0L3.03 0 3.03-40 7-40 7 0ZM32.1 0L23.75 0 21.47-14.35 18.47-36.45 13.05-36.45 13.05-40 21.37-40 23.4-26.78 26.7-3.6 32.1-3.6 32.1 0ZM17 0L13.05 0 13.05-34.55 16.62-34.55 16.77-15.23 17 0ZM32.1-5.5L28.47-5.5 28.32-25.8 28.12-40 32.1-40 32.1-5.5ZM43.87-3.18L43.87 0.3Q40.6 0.05 39.1-1.56 37.6-3.18 37.5-6.58L37.5-6.58Q37.47-8 37.46-9.24 37.45-10.48 37.47-11.74 37.5-13 37.55-14.48L37.55-14.48 41.37-14.48Q41.27-12.25 41.26-10.21 41.25-8.18 41.37-6.08L41.37-6.08Q41.42-4.7 41.98-4.03 42.55-3.35 43.87-3.18L43.87-3.18ZM46.55 0.3L46.55 0.3 46.55-3.18Q47.77-3.38 48.3-4.04 48.82-4.7 48.92-6.08L48.92-6.08Q49.02-7.15 49.03-8.41 49.05-9.68 49.01-10.93 48.97-12.18 48.92-13.28L48.92-13.28Q48.87-15.28 48.12-16.28 47.37-17.28 45.67-17.7L45.67-17.7 42.9-18.38Q40.85-18.88 39.67-19.84 38.5-20.8 38-22.43 37.5-24.05 37.42-26.55L37.42-26.55Q37.4-28.18 37.41-29.94 37.42-31.7 37.45-33.5L37.45-33.5Q37.55-36.88 39.05-38.48 40.55-40.08 43.87-40.3L43.87-40.3 43.87-36.83Q42.6-36.65 42.03-35.99 41.47-35.33 41.42-33.95L41.42-33.95Q41.32-32.05 41.32-30.28 41.32-28.5 41.42-26.55L41.42-26.55Q41.47-24.4 42.02-23.39 42.57-22.38 43.92-22.05L43.92-22.05 46.55-21.45Q48.9-20.9 50.26-19.93 51.62-18.95 52.23-17.32 52.84-15.7 52.92-13.28L52.92-13.28Q52.97-12.23 52.97-11.06 52.97-9.9 52.95-8.75 52.92-7.6 52.9-6.58L52.9-6.58Q52.75-3.18 51.27-1.55 49.8 0.08 46.55 0.3ZM52.7-26.13L48.85-26.13Q48.92-28.43 48.93-30.3 48.95-32.18 48.87-33.95L48.87-33.95Q48.82-35.3 48.3-35.98 47.77-36.65 46.55-36.85L46.55-36.85 46.55-40.3Q49.72-40.05 51.17-38.45 52.62-36.85 52.75-33.45L52.75-33.45Q52.8-31.9 52.77-30.04 52.75-28.18 52.7-26.13L52.7-26.13ZM62.19 0L58.22 0 58.22-40 62.19-40 62.19 0ZM74.52-3.15L74.52 0.3Q71.04 0.08 69.55-1.54 68.07-3.15 67.99-6.58L67.99-6.58Q67.92-9.93 67.89-13.28 67.87-16.63 67.87-19.96 67.87-23.3 67.89-26.64 67.92-29.98 67.99-33.3L67.99-33.3Q68.09-36.8 69.58-38.44 71.07-40.08 74.52-40.3L74.52-40.3 74.52-36.85Q73.04-36.68 72.52-35.98 71.99-35.27 71.94-33.77L71.94-33.77Q71.84-30 71.8-26.63 71.77-23.25 71.77-20.01 71.77-16.78 71.8-13.4 71.84-10.03 71.94-6.25L71.94-6.25Q71.99-4.75 72.52-4.04 73.04-3.33 74.52-3.15L74.52-3.15ZM77.14 0.3L77.14 0.3 77.14-3.13Q78.72-3.3 79.28-4.01 79.84-4.73 79.89-6.25L79.89-6.25Q79.92-7.48 79.93-8.61 79.94-9.75 79.93-10.89 79.92-12.03 79.89-13.25L79.89-13.25 75.92-13.25 75.92-16.85 83.79-16.85Q83.84-13.73 83.83-11.3 83.82-8.88 83.74-6.58L83.74-6.58Q83.64-3.13 82.14-1.53 80.64 0.08 77.14 0.3ZM83.59-26.13L79.62-26.13Q79.69-28.25 79.69-29.96 79.69-31.68 79.62-33.77L79.62-33.77Q79.54-35.27 79.04-35.96 78.54-36.65 77.14-36.83L77.14-36.83 77.14-40.3Q80.49-40.05 81.97-38.45 83.44-36.85 83.59-33.45L83.59-33.45Q83.67-31.55 83.67-29.81 83.67-28.08 83.59-26.13L83.59-26.13ZM93.01 0L89.04 0 89.04-40 93.01-40 93.01 0ZM97.71-18.32L91.31-18.32 91.31-21.9 98.66-21.9 97.71-18.32ZM104.36 0L100.39 0 100.39-40 104.36-40 104.36 0ZM117.79 0L113.84 0 113.84-34.63 117.79-34.63 117.79 0ZM123.86-36.43L107.74-36.43 107.74-40 123.86-40 123.86-36.43Z" opacity="1" transform="matrix(1,0,0,1,0,0)" fill="#000000" class="wordmark-text-0" data-fill-palette-color="primary" id="text-0"></path></svg></g></svg></g></svg></g></svg></g><g><svg viewBox="0 0 244.43135999999998 247.34010012250664" height="247.34010012250664" width="244.43135999999998"><g><svg xmlns="http://www.w3.org/2000/svg" xmlns:xlink="http://www.w3.org/1999/xlink" version="1.1" x="0" y="0" viewBox="10.10556354714485 10.136479593860049 79.0527899615794 79.99352040613995" style="enable-background:new 0 0 100 100;" xml:space="preserve" height="247.34010012250664" width="244.43135999999998" class="icon-icon-0" data-fill-palette-color="accent" id="icon-0"><path d="M68.1 19.297A13 13 0 0 0 58.254 21.154 13 13 0 0 0 52.606 29.428C52.176 31.485 52.269 33.528 52.773 35.433L52.784 35.479C54.018 40.075 57.71 43.837 62.665 44.903L62.679 44.907C62.699 44.911 62.718 44.918 62.739 44.923 63.639 45.111 64.536 45.201 65.422 45.201 71.486 45.201 76.943 40.954 78.233 34.79A13 13 0 0 0 76.376 24.944 13 13 0 0 0 68.1 19.297M74.552 38.73L70.822 37.95A14.8 14.8 0 0 0 72.275 34.463L76.242 35.293A11.2 11.2 0 0 1 74.552 38.73M54.229 30.688L58.196 31.518A14.8 14.8 0 0 0 58.129 35.295L54.398 34.514C54.128 33.284 54.062 31.994 54.229 30.688M56.481 25.224L60.066 25.974A16.7 16.7 0 0 0 58.558 29.755L54.595 28.926A11.2 11.2 0 0 1 56.481 25.224M70.887 32.334L66.485 31.413 67.306 27.488 70.92 28.244C71.085 29.495 71.1 30.87 70.887 32.334M64.214 42.267L64.988 38.568 67.758 39.148A17.2 17.2 0 0 1 64.214 42.267M65.356 36.806L66.116 33.174 70.511 34.093A13 13 0 0 1 68.945 37.556zM67.674 25.727L68.519 21.688A16.3 16.3 0 0 1 70.547 26.328zM66.76 21.305L65.912 25.358 63.04 24.757A16.4 16.4 0 0 1 66.76 21.305M65.544 27.12L64.723 31.045 60.314 30.123C60.704 28.695 61.274 27.445 61.927 26.364zM59.946 31.884L64.355 32.806 63.595 36.438 60.005 35.687A12.9 12.9 0 0 1 59.946 31.884M63.226 38.199L62.452 41.898A17 17 0 0 1 60.45 37.618zM69.761 39.567L73.192 40.285A11.32 11.32 0 0 1 65.795 43.382C67.012 42.52 68.478 41.266 69.761 39.567M72.649 32.702C72.872 31.255 72.896 29.892 72.781 28.633L76.369 29.383C76.705 30.729 76.793 32.129 76.612 33.53zM74.869 25.93C75.178 26.402 75.436 26.896 75.668 27.399L72.503 26.737A18 18 0 0 0 70.93 22.254 11.24 11.24 0 0 1 74.869 25.93M59.24 22.66A11.2 11.2 0 0 1 64.305 20.875 18 18 0 0 0 61.08 24.347L57.919 23.686C58.333 23.318 58.768 22.969 59.24 22.66M55.02 36.483L58.453 37.201C58.947 39.273 59.788 41.01 60.558 42.287A11.32 11.32 0 0 1 55.02 36.483" fill="#000000" data-fill-palette-color="accent"></path><path d="M84.176 17.519L48.986 10.158A1 1 0 0 0 47.802 10.931L43.067 33.565 38.207 29.351A1 1 0 0 0 36.814 29.432L36.062 30.253 34.315 28.654A1 1 0 0 0 32.902 28.716L26.809 35.375A0.997 0.997 0 0 0 26.872 36.788L28.619 38.386 27.867 39.208A1 1 0 0 0 27.91 40.603L32.208 44.752 26.28 51.23 21.767 47.317A1 1 0 0 0 20.374 47.398L19.622 48.22 17.875 46.621A1 1 0 0 0 16.462 46.683L10.369 53.342A0.997 0.997 0 0 0 10.432 54.755L12.179 56.353 11.427 57.175A1 1 0 0 0 11.47 58.57L28.116 74.64A0.99 0.99 0 0 0 28.253 75.815L41.253 89.294A2.74 2.74 0 0 0 43.22 90.13L43.255 90.129A2.74 2.74 0 0 0 45.236 89.241L55.306 78.236A2.74 2.74 0 0 0 56.014 76.184 2.74 2.74 0 0 0 55.005 74.265L52.252 72.045 71.907 76.157A6.23 6.23 0 0 0 76.62 75.269 6.23 6.23 0 0 0 79.323 71.309L89.024 24.936C89.366 23.297 89.05 21.624 88.134 20.223S85.814 17.86 84.176 17.519M28.96 35.988L33.703 30.804 34.713 31.728 29.97 36.911zM37.633 31.5L54.304 45.958 45.877 55.167 30 39.841zM60.201 69.925A0.73 0.73 0 0 1 59.67 70.162C59.478 70.143 59.275 70.086 59.133 69.938L57.555 68.302 68.422 56.427 70.191 57.854A0.72 0.72 0 0 1 70.461 58.369 0.73 0.73 0 0 1 70.271 58.919zM56.165 66.86L46.786 57.136 56.346 46.689 66.863 55.171zM32.382 56.521L38.019 50.361 39.299 51.597C39.297 51.605 39.291 51.611 39.29 51.618L37.361 60.839zM33.648 46.141L36.581 48.972 30.872 55.21 27.793 52.54zM12.521 53.954L17.264 48.77 18.274 49.694 13.531 54.877zM21.193 49.466L37.863 63.924 29.436 73.133 13.561 57.807zM39.906 64.654L50.423 73.135 39.726 84.825 30.347 75.101zM54.022 76.334A0.73 0.73 0 0 1 53.832 76.885L43.762 87.89A0.73 0.73 0 0 1 43.231 88.128C43.034 88.105 42.836 88.05 42.694 87.903L41.117 86.268 51.983 74.393 53.753 75.82A0.73 0.73 0 0 1 54.022 76.334M40.43 62.508A0.99 0.99 0 0 0 39.248 62.476L39.081 62.331C39.088 62.307 39.103 62.288 39.108 62.264L40.996 53.236 44.557 56.673A0.99 0.99 0 0 0 44.694 57.848L57.466 71.092 48.898 69.3C48.882 69.296 48.866 69.302 48.85 69.3zM87.068 24.523L77.367 70.896A4.24 4.24 0 0 1 75.527 73.592 4.24 4.24 0 0 1 72.319 74.197L60.954 71.82C61.22 71.676 61.469 71.5 61.676 71.273L71.746 60.267C72.253 59.713 72.512 58.965 72.455 58.216S72.03 56.767 71.446 56.296L56.87 44.542A0.99 0.99 0 0 0 55.687 44.51L44.797 35.065 49.555 12.319 83.766 19.475A4.24 4.24 0 0 1 86.462 21.315C87.086 22.27 87.301 23.408 87.068 24.523" fill="#000000" data-fill-palette-color="accent"></path></svg></g></svg></g></svg></g><defs></defs></svg><rect width="395.5199999999999" height="145.7247133299571" fill="none" stroke="none" visibility="hidden"></rect></g></svg></g></svg>